<?xml version="1.0" encoding="utf-8"?>
<!-- Generator: Adobe Illustrator 24.0.1, SVG Export Plug-In . SVG Version: 6.00 Build 0)  -->
<svg version="1.1" id="Layer_1" xmlns="http://www.w3.org/2000/svg" xmlns:xlink="http://www.w3.org/1999/xlink" x="0px" y="0px"
	 viewBox="0 0 24 24" style="enable-background:new 0 0 24 24;" xml:space="preserve">
<style type="text/css">
	.st0{fill:#FFFFFF;}
</style>
<title></title>
<g id="icomoon-ignore">
</g>
<path class="st0" d="M24,8.7v10.6c0,1.2-1,2.1-2.1,2.1H2.1c-1.2,0-2.1-1-2.1-2.1V8.7c0.4,0.4,0.9,0.8,1.4,1.2c2.2,1.5,4.5,3,6.7,4.6
	c1.1,0.8,2.5,1.8,4,1.8l0,0c1.5,0,2.9-1,4-1.8c2.2-1.6,4.4-3.1,6.7-4.6C23.1,9.5,23.6,9.1,24,8.7z M24,4.7c0,1.5-1.1,2.9-2.3,3.7
	c-2.1,1.4-4.2,2.9-6.3,4.4c-0.9,0.6-2.3,1.8-3.4,1.8l0,0c-1.1,0-2.6-1.2-3.4-1.8c-2.1-1.5-4.2-2.9-6.3-4.4C1.4,7.7,0,6.2,0,5
	c0-1.3,0.7-2.4,2.1-2.4h19.7C23,2.6,24,3.5,24,4.7z"/>
</svg>
