<?xml version="1.0" encoding="utf-8"?>
<!-- Generator: Adobe Illustrator 24.0.1, SVG Export Plug-In . SVG Version: 6.00 Build 0)  -->
<svg version="1.1" id="Layer_1" xmlns="http://www.w3.org/2000/svg" xmlns:xlink="http://www.w3.org/1999/xlink" x="0px" y="0px"
	 viewBox="0 0 24 24" style="enable-background:new 0 0 24 24;" xml:space="preserve">
<style type="text/css">
	.st0{fill:#FFFFFF;}
</style>
<title></title>
<g id="icomoon-ignore">
</g>
<path class="st0" d="M17.3,0H6.8C5.5,0,4.5,1,4.5,2.3v19.5c0,1.2,1,2.3,2.3,2.3h10.5c1.2,0,2.3-1,2.3-2.3V2.3C19.5,1,18.5,0,17.3,0z
	 M9,1.1h6v0.8H9V1.1z M12,22.5c-0.8,0-1.5-0.7-1.5-1.5s0.7-1.5,1.5-1.5s1.5,0.7,1.5,1.5S12.8,22.5,12,22.5z M18,18H6V3h12V18z"/>
</svg>
