<?xml version="1.0" encoding="utf-8"?>
<!-- Generator: Adobe Illustrator 24.0.1, SVG Export Plug-In . SVG Version: 6.00 Build 0)  -->
<svg version="1.1" id="Layer_1" xmlns="http://www.w3.org/2000/svg" xmlns:xlink="http://www.w3.org/1999/xlink" x="0px" y="0px"
	 viewBox="0 0 24 24" style="enable-background:new 0 0 24 24;" xml:space="preserve">
<style type="text/css">
	.st0{fill:#FFFFFF;}
</style>
<title></title>
<g id="icomoon-ignore">
</g>
<path class="st0" d="M15.4,13.2c0.3,0,2.8,1.3,2.9,1.5c0,0.1,0,0.2,0,0.2c0,0.4-0.1,0.8-0.3,1.2c-0.4,0.9-1.8,1.4-2.7,1.4
	c-0.7,0-2.3-0.7-2.9-1c-2.2-1-3.6-2.7-4.9-4.7C6.9,11,6.4,10,6.4,8.9V8.8c0-1,0.4-1.8,1.1-2.4C7.8,6.1,8,6,8.3,6c0.2,0,0.4,0,0.6,0
	c0.4,0,0.5,0.1,0.7,0.5c0.1,0.3,0.9,2.4,0.9,2.5c0,0.6-1.1,1.3-1.1,1.6c0,0.1,0,0.2,0.1,0.2c0.3,0.7,1,1.6,1.6,2.1
	c0.7,0.7,1.5,1.1,2.3,1.6c0.1,0.1,0.2,0.1,0.3,0.1C14.2,14.7,15,13.2,15.4,13.2z M12.2,21.4c5.4,0,9.7-4.4,9.7-9.7S17.6,2,12.2,2
	s-9.7,4.4-9.7,9.7c0,2,0.7,4,1.9,5.7L3.1,21l3.8-1.2C8.4,20.9,10.3,21.4,12.2,21.4z M12.2,0c6.4,0,11.7,5.2,11.7,11.7
	s-5.2,11.7-11.7,11.7c-2,0-3.9-0.5-5.7-1.5L0.1,24l2.1-6.3c-1.1-1.8-1.7-3.9-1.7-6C0.5,5.2,5.8,0,12.2,0z"/>
</svg>
